<svg width="227" height="227" fill="none" xmlns="http://www.w3.org/2000/svg"><path d="M110.471 2.69c.426-3.587 5.632-3.587 6.058 0l3.571 30.097c4.611 38.862 35.251 69.502 74.113 74.113l30.096 3.571c3.588.426 3.588 5.632 0 6.058l-30.096 3.571c-38.862 4.611-69.502 35.251-74.113 74.113l-3.571 30.096c-.426 3.588-5.632 3.588-6.058 0l-3.571-30.096c-4.611-38.862-35.251-69.502-74.113-74.113L2.69 116.529c-3.588-.426-3.588-5.632 0-6.058l30.096-3.571c38.862-4.611 69.502-35.251 74.113-74.113l3.571-30.096Z" fill="#F8841D"/></svg>